<svg width="1890" height="1528" viewBox="0 0 1890 1528" fill="none" xmlns="http://www.w3.org/2000/svg">
<path d="M-3.63135 1292.85C-3.63135 1292.85 389.289 1332.14 324.944 1292.85C260.598 1253.57 692.16 1335.15 634.036 1292.85C575.913 1250.56 1180.21 1347.22 1108.87 1292.85C1037.53 1238.49 1663.08 1344.2 1608.35 1292.85C1553.62 1241.51 1883.45 1292.85 1883.45 1292.85" stroke="#A0A9C9" stroke-opacity="0.15"/>
<path d="M-0.355469 1272.72C-0.355469 1272.72 392.565 1312 328.22 1272.72C263.874 1233.44 695.435 1315.02 637.312 1272.72C579.189 1230.42 1183.49 1327.08 1112.15 1272.72C1040.81 1218.35 1666.35 1324.07 1611.63 1272.72C1556.9 1221.37 1886.72 1272.72 1886.72 1272.72" stroke="#A0A9C9" stroke-opacity="0.15"/>
<path d="M2.9209 1252.58C2.9209 1252.58 395.841 1291.86 331.496 1252.58C267.151 1213.3 698.712 1294.88 640.588 1252.58C582.465 1210.28 1186.77 1306.94 1115.43 1252.58C1044.09 1198.21 1669.63 1303.93 1614.9 1252.58C1560.18 1201.23 1890 1252.58 1890 1252.58" stroke="#A0A9C9" stroke-opacity="0.15"/>
<path d="M-4.72363 1313C-4.72363 1313 388.197 1352.28 323.851 1313C259.506 1273.71 691.067 1355.29 632.944 1313C574.82 1270.7 1179.12 1367.36 1107.78 1313C1036.44 1258.63 1661.98 1364.34 1607.26 1313C1552.53 1261.65 1882.36 1313 1882.36 1313" stroke="#A0A9C9" stroke-opacity="0.15"/>
<path d="M-5.81641 1333.14C-5.81641 1333.14 387.104 1372.42 322.759 1333.14C258.413 1293.85 689.974 1375.43 631.851 1333.14C573.728 1290.84 1178.03 1387.5 1106.69 1333.14C1035.35 1278.77 1660.89 1384.49 1606.16 1333.14C1551.44 1281.79 1881.26 1333.14 1881.26 1333.14" stroke="#A0A9C9" stroke-opacity="0.15"/>
<path d="M-6.90771 1353.28C-6.90771 1353.28 386.013 1392.56 321.667 1353.28C257.322 1313.99 688.883 1395.57 630.76 1353.28C572.636 1310.98 1176.94 1407.64 1105.6 1353.28C1034.26 1298.91 1659.8 1404.63 1605.07 1353.28C1550.35 1301.93 1880.17 1353.28 1880.17 1353.28" stroke="#A0A9C9" stroke-opacity="0.15"/>
<path d="M-8 1373.42C-8 1373.42 384.92 1412.7 320.575 1373.42C256.23 1334.13 687.791 1415.71 629.667 1373.42C571.544 1331.12 1175.85 1427.78 1104.51 1373.42C1033.17 1319.05 1658.71 1424.76 1603.98 1373.42C1549.25 1322.07 1879.08 1373.42 1879.08 1373.42" stroke="#A0A9C9" stroke-opacity="0.15"/>
<path d="M-3.63135 1155.79C-3.63135 1155.79 389.289 1195.07 324.944 1155.79C260.598 1116.51 692.16 1198.09 634.036 1155.79C575.913 1113.49 1180.21 1210.16 1108.87 1155.79C1037.53 1101.43 1663.08 1207.14 1608.35 1155.79C1553.62 1104.44 1883.45 1155.79 1883.45 1155.79" stroke="#A0A9C9" stroke-opacity="0.15"/>
<path d="M-0.355469 1135.66C-0.355469 1135.66 392.565 1174.94 328.22 1135.66C263.874 1096.37 695.435 1177.95 637.312 1135.66C579.189 1093.36 1183.49 1190.02 1112.15 1135.66C1040.81 1081.29 1666.35 1187 1611.63 1135.66C1556.9 1084.31 1886.72 1135.66 1886.72 1135.66" stroke="#A0A9C9" stroke-opacity="0.15"/>
<path d="M2.9209 1115.52C2.9209 1115.52 395.841 1154.8 331.496 1115.52C267.151 1076.23 698.712 1157.81 640.588 1115.52C582.465 1073.22 1186.77 1169.88 1115.43 1115.52C1044.09 1061.15 1669.63 1166.86 1614.9 1115.52C1560.18 1064.17 1890 1115.52 1890 1115.52" stroke="#A0A9C9" stroke-opacity="0.15"/>
<path d="M-4.72363 1175.93C-4.72363 1175.93 388.197 1215.21 323.851 1175.93C259.506 1136.65 691.067 1218.23 632.944 1175.93C574.82 1133.63 1179.12 1230.3 1107.78 1175.93C1036.44 1121.57 1661.98 1227.28 1607.26 1175.93C1552.53 1124.58 1882.36 1175.93 1882.36 1175.93" stroke="#A0A9C9" stroke-opacity="0.15"/>
<path d="M-5.81641 1196.07C-5.81641 1196.07 387.104 1235.36 322.759 1196.07C258.413 1156.79 689.974 1238.37 631.851 1196.07C573.728 1153.78 1178.03 1250.44 1106.69 1196.07C1035.35 1141.71 1660.89 1247.42 1606.16 1196.07C1551.44 1144.73 1881.26 1196.07 1881.26 1196.07" stroke="#A0A9C9" stroke-opacity="0.15"/>
<path d="M-6.90771 1216.21C-6.90771 1216.21 386.013 1255.5 321.667 1216.21C257.322 1176.93 688.883 1258.51 630.76 1216.21C572.636 1173.91 1176.94 1270.58 1105.6 1216.21C1034.26 1161.85 1659.8 1267.56 1605.07 1216.21C1550.35 1164.86 1880.17 1216.21 1880.17 1216.21" stroke="#A0A9C9" stroke-opacity="0.15"/>
<path d="M-8 1236.35C-8 1236.35 384.92 1275.64 320.575 1236.35C256.23 1197.07 687.791 1278.65 629.667 1236.35C571.544 1194.06 1175.85 1290.72 1104.51 1236.35C1033.17 1181.99 1658.71 1287.7 1603.98 1236.35C1549.25 1185 1879.08 1236.35 1879.08 1236.35" stroke="#A0A9C9" stroke-opacity="0.15"/>
<path d="M-0.355469 1546.84C-0.355469 1546.84 392.565 1586.12 328.22 1546.84C263.874 1507.56 695.435 1589.14 637.312 1546.84C579.189 1504.54 1183.49 1601.21 1112.15 1546.84C1040.81 1492.48 1666.35 1598.19 1611.63 1546.84C1556.9 1495.49 1886.72 1546.84 1886.72 1546.84" stroke="#A0A9C9" stroke-opacity="0.15"/>
<path d="M2.9209 1526.7C2.9209 1526.7 395.841 1565.98 331.496 1526.7C267.151 1487.42 698.712 1569 640.588 1526.7C582.465 1484.4 1186.77 1581.07 1115.43 1526.7C1044.09 1472.34 1669.63 1578.05 1614.9 1526.7C1560.18 1475.35 1890 1526.7 1890 1526.7" stroke="#A0A9C9" stroke-opacity="0.15"/>
<path d="M-3.63135 1429.92C-3.63135 1429.92 389.289 1469.2 324.944 1429.92C260.598 1390.64 692.16 1472.22 634.036 1429.92C575.913 1387.62 1180.21 1484.29 1108.87 1429.92C1037.53 1375.55 1663.08 1481.27 1608.35 1429.92C1553.62 1378.57 1883.45 1429.92 1883.45 1429.92" stroke="#A0A9C9" stroke-opacity="0.15"/>
<path d="M-0.355469 1409.78C-0.355469 1409.78 392.565 1449.06 328.22 1409.78C263.874 1370.5 695.435 1452.08 637.312 1409.78C579.189 1367.48 1183.49 1464.15 1112.15 1409.78C1040.81 1355.42 1666.35 1461.13 1611.63 1409.78C1556.9 1358.43 1886.72 1409.78 1886.72 1409.78" stroke="#A0A9C9" stroke-opacity="0.15"/>
<path d="M2.9209 1389.64C2.9209 1389.64 395.841 1428.92 331.496 1389.64C267.151 1350.36 698.712 1431.94 640.588 1389.64C582.465 1347.34 1186.77 1444.01 1115.43 1389.64C1044.09 1335.28 1669.63 1440.99 1614.9 1389.64C1560.18 1338.29 1890 1389.64 1890 1389.64" stroke="#A0A9C9" stroke-opacity="0.15"/>
<path d="M-4.72363 1450.06C-4.72363 1450.06 388.197 1489.34 323.851 1450.06C259.506 1410.78 691.067 1492.36 632.944 1450.06C574.82 1407.76 1179.12 1504.43 1107.78 1450.06C1036.44 1395.69 1661.98 1501.41 1607.26 1450.06C1552.53 1398.71 1882.36 1450.06 1882.36 1450.06" stroke="#A0A9C9" stroke-opacity="0.15"/>
<path d="M-5.81641 1470.2C-5.81641 1470.2 387.104 1509.48 322.759 1470.2C258.413 1430.92 689.974 1512.5 631.851 1470.2C573.728 1427.9 1178.03 1524.57 1106.69 1470.2C1035.35 1415.83 1660.89 1521.55 1606.16 1470.2C1551.44 1418.85 1881.26 1470.2 1881.26 1470.2" stroke="#A0A9C9" stroke-opacity="0.15"/>
<path d="M-6.90771 1490.34C-6.90771 1490.34 386.013 1529.62 321.667 1490.34C257.322 1451.06 688.883 1532.64 630.76 1490.34C572.636 1448.04 1176.94 1544.71 1105.6 1490.34C1034.26 1435.97 1659.8 1541.69 1605.07 1490.34C1550.35 1438.99 1880.17 1490.34 1880.17 1490.34" stroke="#A0A9C9" stroke-opacity="0.15"/>
<path d="M-8 1510.48C-8 1510.48 384.92 1549.76 320.575 1510.48C256.23 1471.2 687.791 1552.78 629.667 1510.48C571.544 1468.18 1175.85 1564.85 1104.51 1510.48C1033.17 1456.11 1658.71 1561.83 1603.98 1510.48C1549.25 1459.13 1879.08 1510.48 1879.08 1510.48" stroke="#A0A9C9" stroke-opacity="0.15"/>
<path d="M-3.63135 1019.68C-3.63135 1019.68 389.289 1058.96 324.944 1019.68C260.598 980.401 692.16 1061.98 634.036 1019.68C575.913 977.384 1180.21 1074.05 1108.87 1019.68C1037.53 965.316 1663.08 1071.03 1608.35 1019.68C1553.62 968.333 1883.45 1019.68 1883.45 1019.68" stroke="#A0A9C9" stroke-opacity="0.15"/>
<path d="M-0.355469 999.546C-0.355469 999.546 392.565 1038.83 328.22 999.546C263.874 960.264 695.435 1041.84 637.312 999.546C579.189 957.247 1183.49 1053.91 1112.15 999.546C1040.81 945.18 1666.35 1050.9 1611.63 999.546C1556.9 948.197 1886.72 999.546 1886.72 999.546" stroke="#A0A9C9" stroke-opacity="0.15"/>
<path d="M2.9209 979.405C2.9209 979.405 395.841 1018.69 331.496 979.405C267.151 940.123 698.712 1021.7 640.588 979.405C582.465 937.106 1186.77 1033.77 1115.43 979.405C1044.09 925.039 1669.63 1030.75 1614.9 979.405C1560.18 928.056 1890 979.405 1890 979.405" stroke="#A0A9C9" stroke-opacity="0.15"/>
<path d="M-4.72363 1039.82C-4.72363 1039.82 388.197 1079.11 323.851 1039.82C259.506 1000.54 691.067 1082.12 632.944 1039.82C574.82 997.525 1179.12 1094.19 1107.78 1039.82C1036.44 985.458 1661.98 1091.17 1607.26 1039.82C1552.53 988.475 1882.36 1039.82 1882.36 1039.82" stroke="#A0A9C9" stroke-opacity="0.15"/>
<path d="M-5.81641 1059.96C-5.81641 1059.96 387.104 1099.25 322.759 1059.96C258.413 1020.68 689.974 1102.26 631.851 1059.96C573.728 1017.67 1178.03 1114.33 1106.69 1059.96C1035.35 1005.6 1660.89 1111.31 1606.16 1059.96C1551.44 1008.61 1881.26 1059.96 1881.26 1059.96" stroke="#A0A9C9" stroke-opacity="0.15"/>
<path d="M-6.90771 1080.1C-6.90771 1080.1 386.013 1119.39 321.667 1080.1C257.322 1040.82 688.883 1122.4 630.76 1080.1C572.636 1037.81 1176.94 1134.47 1105.6 1080.1C1034.26 1025.74 1659.8 1131.45 1605.07 1080.1C1550.35 1028.75 1880.17 1080.1 1880.17 1080.1" stroke="#A0A9C9" stroke-opacity="0.15"/>
<path d="M-8 1100.24C-8 1100.24 384.92 1139.52 320.575 1100.24C256.23 1060.96 687.791 1142.54 629.667 1100.24C571.544 1057.94 1175.85 1154.61 1104.51 1100.24C1033.17 1045.88 1658.71 1151.59 1603.98 1100.24C1549.25 1048.89 1879.08 1100.24 1879.08 1100.24" stroke="#A0A9C9" stroke-opacity="0.15"/>
<path d="M-3.63135 882.619C-3.63135 882.619 389.289 921.901 324.944 882.619C260.598 843.338 692.16 924.918 634.036 882.619C575.913 840.321 1180.21 936.985 1108.87 882.619C1037.53 828.253 1663.08 933.968 1608.35 882.619C1553.62 831.27 1883.45 882.619 1883.45 882.619" stroke="#A0A9C9" stroke-opacity="0.15"/>
<path d="M-0.355469 862.483C-0.355469 862.483 392.565 901.765 328.22 862.483C263.874 823.201 695.435 904.782 637.312 862.483C579.189 820.184 1183.49 916.849 1112.15 862.483C1040.81 808.117 1666.35 913.832 1611.63 862.483C1556.9 811.134 1886.72 862.483 1886.72 862.483" stroke="#A0A9C9" stroke-opacity="0.15"/>
<path d="M2.9209 842.341C2.9209 842.341 395.841 881.623 331.496 842.341C267.151 803.06 698.712 884.64 640.588 842.341C582.465 800.043 1186.77 896.708 1115.43 842.341C1044.09 787.975 1669.63 893.691 1614.9 842.341C1560.18 790.992 1890 842.341 1890 842.341" stroke="#A0A9C9" stroke-opacity="0.15"/>
<path d="M-4.72363 902.76C-4.72363 902.76 388.197 942.042 323.851 902.76C259.506 863.479 691.067 945.059 632.944 902.76C574.82 860.462 1179.12 957.126 1107.78 902.76C1036.44 848.394 1661.98 954.11 1607.26 902.76C1552.53 851.411 1882.36 902.76 1882.36 902.76" stroke="#A0A9C9" stroke-opacity="0.15"/>
<path d="M-5.81641 922.9C-5.81641 922.9 387.104 962.182 322.759 922.9C258.413 883.619 689.974 965.199 631.851 922.9C573.728 880.602 1178.03 977.267 1106.69 922.9C1035.35 868.534 1660.89 974.25 1606.16 922.9C1551.44 871.551 1881.26 922.9 1881.26 922.9" stroke="#A0A9C9" stroke-opacity="0.15"/>
<path d="M-6.90771 943.041C-6.90771 943.041 386.013 982.323 321.667 943.041C257.322 903.759 688.883 985.34 630.76 943.041C572.636 900.743 1176.94 997.407 1105.6 943.041C1034.26 888.675 1659.8 994.39 1605.07 943.041C1550.35 891.692 1880.17 943.041 1880.17 943.041" stroke="#A0A9C9" stroke-opacity="0.15"/>
<path d="M-8 963.18C-8 963.18 384.92 1002.46 320.575 963.18C256.23 923.899 687.791 1005.48 629.667 963.18C571.544 920.882 1175.85 1017.55 1104.51 963.18C1033.17 908.814 1658.71 1014.53 1603.98 963.18C1549.25 911.831 1879.08 963.18 1879.08 963.18" stroke="#A0A9C9" stroke-opacity="0.15"/>
<path d="M-3.63135 746.51C-3.63135 746.51 389.289 785.792 324.944 746.51C260.598 707.228 692.16 788.808 634.036 746.51C575.913 704.211 1180.21 800.876 1108.87 746.51C1037.53 692.144 1663.08 797.859 1608.35 746.51C1553.62 695.161 1883.45 746.51 1883.45 746.51" stroke="#A0A9C9" stroke-opacity="0.15"/>
<path d="M-0.355469 726.374C-0.355469 726.374 392.565 765.655 328.22 726.374C263.874 687.092 695.435 768.672 637.312 726.374C579.189 684.075 1183.49 780.74 1112.15 726.374C1040.81 672.008 1666.35 777.723 1611.63 726.374C1556.9 675.024 1886.72 726.374 1886.72 726.374" stroke="#A0A9C9" stroke-opacity="0.15"/>
<path d="M2.9209 706.232C2.9209 706.232 395.841 745.514 331.496 706.232C267.151 666.95 698.712 748.531 640.588 706.232C582.465 663.933 1186.77 760.598 1115.43 706.232C1044.09 651.866 1669.63 757.581 1614.9 706.232C1560.18 654.883 1890 706.232 1890 706.232" stroke="#A0A9C9" stroke-opacity="0.15"/>
<path d="M-4.72363 766.651C-4.72363 766.651 388.197 805.933 323.851 766.651C259.506 727.369 691.067 808.95 632.944 766.651C574.82 724.352 1179.12 821.017 1107.78 766.651C1036.44 712.285 1661.98 818 1607.26 766.651C1552.53 715.302 1882.36 766.651 1882.36 766.651" stroke="#A0A9C9" stroke-opacity="0.15"/>
<path d="M-5.81641 786.791C-5.81641 786.791 387.104 826.073 322.759 786.791C258.413 747.509 689.974 829.09 631.851 786.791C573.728 744.493 1178.03 841.157 1106.69 786.791C1035.35 732.425 1660.89 838.14 1606.16 786.791C1551.44 735.442 1881.26 786.791 1881.26 786.791" stroke="#A0A9C9" stroke-opacity="0.15"/>
<path d="M-6.90771 806.932C-6.90771 806.932 386.013 846.213 321.667 806.932C257.322 767.65 688.883 849.23 630.76 806.932C572.636 764.633 1176.94 861.298 1105.6 806.932C1034.26 752.566 1659.8 858.281 1605.07 806.932C1550.35 755.583 1880.17 806.932 1880.17 806.932" stroke="#A0A9C9" stroke-opacity="0.15"/>
<path d="M-8 827.071C-8 827.071 384.92 866.353 320.575 827.071C256.23 787.789 687.791 869.369 629.667 827.071C571.544 784.772 1175.85 881.437 1104.51 827.071C1033.17 772.705 1658.71 878.42 1603.98 827.071C1549.25 775.722 1879.08 827.071 1879.08 827.071" stroke="#A0A9C9" stroke-opacity="0.15"/>
<path d="M-3.63135 609.449C-3.63135 609.449 389.289 648.731 324.944 609.449C260.598 570.168 692.16 651.748 634.036 609.449C575.913 567.151 1180.21 663.815 1108.87 609.449C1037.53 555.083 1663.08 660.799 1608.35 609.449C1553.62 558.1 1883.45 609.449 1883.45 609.449" stroke="#A0A9C9" stroke-opacity="0.15"/>
<path d="M-0.355469 589.313C-0.355469 589.313 392.565 628.594 328.22 589.313C263.874 550.031 695.435 631.611 637.312 589.313C579.189 547.014 1183.49 643.679 1112.15 589.313C1040.81 534.946 1666.35 640.662 1611.63 589.313C1556.9 537.963 1886.72 589.313 1886.72 589.313" stroke="#A0A9C9" stroke-opacity="0.15"/>
<path d="M2.9209 569.171C2.9209 569.171 395.841 608.453 331.496 569.171C267.151 529.89 698.712 611.47 640.588 569.171C582.465 526.873 1186.77 623.538 1115.43 569.171C1044.09 514.805 1669.63 620.521 1614.9 569.171C1560.18 517.822 1890 569.171 1890 569.171" stroke="#A0A9C9" stroke-opacity="0.15"/>
<path d="M-4.72363 629.59C-4.72363 629.59 388.197 668.872 323.851 629.59C259.506 590.309 691.067 671.889 632.944 629.59C574.82 587.292 1179.12 683.957 1107.78 629.59C1036.44 575.224 1661.98 680.94 1607.26 629.59C1552.53 578.241 1882.36 629.59 1882.36 629.59" stroke="#A0A9C9" stroke-opacity="0.15"/>
<path d="M-5.81641 649.731C-5.81641 649.731 387.104 689.012 322.759 649.731C258.413 610.449 689.974 692.029 631.851 649.731C573.728 607.432 1178.03 704.097 1106.69 649.731C1035.35 595.364 1660.89 701.08 1606.16 649.731C1551.44 598.381 1881.26 649.731 1881.26 649.731" stroke="#A0A9C9" stroke-opacity="0.15"/>
<path d="M-6.90771 669.871C-6.90771 669.871 386.013 709.152 321.667 669.871C257.322 630.589 688.883 712.169 630.76 669.871C572.636 627.572 1176.94 724.237 1105.6 669.871C1034.26 615.505 1659.8 721.22 1605.07 669.871C1550.35 618.521 1880.17 669.871 1880.17 669.871" stroke="#A0A9C9" stroke-opacity="0.15"/>
<path d="M-8 690.01C-8 690.01 384.92 729.292 320.575 690.01C256.23 650.728 687.791 732.308 629.667 690.01C571.544 647.711 1175.85 744.376 1104.51 690.01C1033.17 635.644 1658.71 741.359 1603.98 690.01C1549.25 638.661 1879.08 690.01 1879.08 690.01" stroke="#A0A9C9" stroke-opacity="0.15"/>
<path d="M-3.63135 473.337C-3.63135 473.337 389.289 512.618 324.944 473.337C260.598 434.055 692.16 515.635 634.036 473.337C575.913 431.038 1180.21 527.703 1108.87 473.337C1037.53 418.97 1663.08 524.686 1608.35 473.337C1553.62 421.987 1883.45 473.337 1883.45 473.337" stroke="#A0A9C9" stroke-opacity="0.15"/>
<path d="M-0.355469 453.2C-0.355469 453.2 392.565 492.481 328.22 453.2C263.874 413.918 695.435 495.498 637.312 453.2C579.189 410.901 1183.49 507.566 1112.15 453.2C1040.81 398.834 1666.35 504.549 1611.63 453.2C1556.9 401.851 1886.72 453.2 1886.72 453.2" stroke="#A0A9C9" stroke-opacity="0.15"/>
<path d="M2.9209 433.059C2.9209 433.059 395.841 472.34 331.496 433.059C267.151 393.777 698.712 475.357 640.588 433.059C582.465 390.76 1186.77 487.425 1115.43 433.059C1044.09 378.693 1669.63 484.408 1614.9 433.059C1560.18 381.709 1890 433.059 1890 433.059" stroke="#A0A9C9" stroke-opacity="0.15"/>
<path d="M-4.72363 493.478C-4.72363 493.478 388.197 532.759 323.851 493.478C259.506 454.196 691.067 535.776 632.944 493.478C574.82 451.179 1179.12 547.844 1107.78 493.478C1036.44 439.112 1661.98 544.827 1607.26 493.478C1552.53 442.128 1882.36 493.478 1882.36 493.478" stroke="#A0A9C9" stroke-opacity="0.15"/>
<path d="M-5.81641 513.618C-5.81641 513.618 387.104 552.899 322.759 513.618C258.413 474.336 689.974 555.916 631.851 513.618C573.728 471.319 1178.03 567.984 1106.69 513.618C1035.35 459.252 1660.89 564.967 1606.16 513.618C1551.44 462.269 1881.26 513.618 1881.26 513.618" stroke="#A0A9C9" stroke-opacity="0.15"/>
<path d="M-6.90771 533.758C-6.90771 533.758 386.013 573.04 321.667 533.758C257.322 494.476 688.883 576.056 630.76 533.758C572.636 491.459 1176.94 588.124 1105.6 533.758C1034.26 479.392 1659.8 585.107 1605.07 533.758C1550.35 482.409 1880.17 533.758 1880.17 533.758" stroke="#A0A9C9" stroke-opacity="0.15"/>
<path d="M-8 553.897C-8 553.897 384.92 593.179 320.575 553.897C256.23 514.615 687.791 596.196 629.667 553.897C571.544 511.599 1175.85 608.263 1104.51 553.897C1033.17 499.531 1658.71 605.246 1603.98 553.897C1549.25 502.548 1879.08 553.897 1879.08 553.897" stroke="#A0A9C9" stroke-opacity="0.15"/>
<path d="M-3.63135 336.272C-3.63135 336.272 389.289 375.554 324.944 336.272C260.598 296.99 692.16 378.571 634.036 336.272C575.913 293.974 1180.21 390.638 1108.87 336.272C1037.53 281.906 1663.08 387.621 1608.35 336.272C1553.62 284.923 1883.45 336.272 1883.45 336.272" stroke="#A0A9C9" stroke-opacity="0.15"/>
<path d="M-0.355469 316.136C-0.355469 316.136 392.565 355.417 328.22 316.136C263.874 276.854 695.435 358.434 637.312 316.136C579.189 273.837 1183.49 370.502 1112.15 316.136C1040.81 261.77 1666.35 367.485 1611.63 316.136C1556.9 264.787 1886.72 316.136 1886.72 316.136" stroke="#A0A9C9" stroke-opacity="0.15"/>
<path d="M2.9209 295.995C2.9209 295.995 395.841 335.276 331.496 295.995C267.151 256.713 698.712 338.293 640.588 295.995C582.465 253.696 1186.77 350.361 1115.43 295.995C1044.09 241.629 1669.63 347.344 1614.9 295.995C1560.18 244.646 1890 295.995 1890 295.995" stroke="#A0A9C9" stroke-opacity="0.15"/>
<path d="M-4.72363 356.413C-4.72363 356.413 388.197 395.695 323.851 356.413C259.506 317.132 691.067 398.712 632.944 356.413C574.82 314.115 1179.12 410.779 1107.78 356.413C1036.44 302.047 1661.98 407.762 1607.26 356.413C1552.53 305.064 1882.36 356.413 1882.36 356.413" stroke="#A0A9C9" stroke-opacity="0.15"/>
<path d="M-5.81641 376.553C-5.81641 376.553 387.104 415.835 322.759 376.553C258.413 337.272 689.974 418.852 631.851 376.553C573.728 334.255 1178.03 430.919 1106.69 376.553C1035.35 322.187 1660.89 427.903 1606.16 376.553C1551.44 325.204 1881.26 376.553 1881.26 376.553" stroke="#A0A9C9" stroke-opacity="0.15"/>
<path d="M-6.90771 396.694C-6.90771 396.694 386.013 435.976 321.667 396.694C257.322 357.412 688.883 438.992 630.76 396.694C572.636 354.395 1176.94 451.06 1105.6 396.694C1034.26 342.328 1659.8 448.043 1605.07 396.694C1550.35 345.345 1880.17 396.694 1880.17 396.694" stroke="#A0A9C9" stroke-opacity="0.15"/>
<path d="M-8 416.833C-8 416.833 384.92 456.115 320.575 416.833C256.23 377.551 687.791 459.132 629.667 416.833C571.544 374.535 1175.85 471.199 1104.51 416.833C1033.17 362.467 1658.71 468.182 1603.98 416.833C1549.25 365.484 1879.08 416.833 1879.08 416.833" stroke="#A0A9C9" stroke-opacity="0.15"/>
<path d="M-3.63135 200.162C-3.63135 200.162 389.289 239.444 324.944 200.162C260.598 160.881 692.16 242.461 634.036 200.162C575.913 157.864 1180.21 254.528 1108.87 200.162C1037.53 145.796 1663.08 251.511 1608.35 200.162C1553.62 148.813 1883.45 200.162 1883.45 200.162" stroke="#A0A9C9" stroke-opacity="0.15"/>
<path d="M-0.355469 180.025C-0.355469 180.025 392.565 219.307 328.22 180.025C263.874 140.744 695.435 222.324 637.312 180.025C579.189 137.727 1183.49 234.392 1112.15 180.025C1040.81 125.659 1666.35 231.375 1611.63 180.025C1556.9 128.676 1886.72 180.025 1886.72 180.025" stroke="#A0A9C9" stroke-opacity="0.15"/>
<path d="M2.9209 159.884C2.9209 159.884 395.841 199.166 331.496 159.884C267.151 120.603 698.712 202.183 640.588 159.884C582.465 117.586 1186.77 214.25 1115.43 159.884C1044.09 105.518 1669.63 211.234 1614.9 159.884C1560.18 108.535 1890 159.884 1890 159.884" stroke="#A0A9C9" stroke-opacity="0.15"/>
<path d="M-4.72363 220.303C-4.72363 220.303 388.197 259.585 323.851 220.303C259.506 181.022 691.067 262.602 632.944 220.303C574.82 178.005 1179.12 274.669 1107.78 220.303C1036.44 165.937 1661.98 271.653 1607.26 220.303C1552.53 168.954 1882.36 220.303 1882.36 220.303" stroke="#A0A9C9" stroke-opacity="0.15"/>
<path d="M-5.81641 240.443C-5.81641 240.443 387.104 279.725 322.759 240.443C258.413 201.162 689.974 282.742 631.851 240.443C573.728 198.145 1178.03 294.81 1106.69 240.443C1035.35 186.077 1660.89 291.793 1606.16 240.443C1551.44 189.094 1881.26 240.443 1881.26 240.443" stroke="#A0A9C9" stroke-opacity="0.15"/>
<path d="M-6.90771 260.584C-6.90771 260.584 386.013 299.865 321.667 260.584C257.322 221.302 688.883 302.882 630.76 260.584C572.636 218.285 1176.94 314.95 1105.6 260.584C1034.26 206.217 1659.8 311.933 1605.07 260.584C1550.35 209.234 1880.17 260.584 1880.17 260.584" stroke="#A0A9C9" stroke-opacity="0.15"/>
<path d="M-8 280.723C-8 280.723 384.92 320.004 320.575 280.723C256.23 241.441 687.791 323.021 629.667 280.723C571.544 238.424 1175.85 335.089 1104.51 280.723C1033.17 226.357 1658.71 332.072 1603.98 280.723C1549.25 229.374 1879.08 280.723 1879.08 280.723" stroke="#A0A9C9" stroke-opacity="0.15"/>
<path d="M-3.63135 63.0997C-3.63135 63.0997 389.289 102.381 324.944 63.0997C260.598 23.818 692.16 105.398 634.036 63.0997C575.913 20.8012 1180.21 117.466 1108.87 63.0997C1037.53 8.73361 1663.08 114.449 1608.35 63.0997C1553.62 11.7505 1883.45 63.0997 1883.45 63.0997" stroke="#A0A9C9" stroke-opacity="0.15"/>
<path d="M-0.355469 42.963C-0.355469 42.963 392.565 82.2446 328.22 42.963C263.874 3.68133 695.435 85.2615 637.312 42.963C579.189 0.664437 1183.49 97.3291 1112.15 42.963C1040.81 -11.4031 1666.35 94.3122 1611.63 42.963C1556.9 -8.38623 1886.72 42.963 1886.72 42.963" stroke="#A0A9C9" stroke-opacity="0.15"/>
<path d="M2.9209 22.8219C2.9209 22.8219 395.841 62.1035 331.496 22.8219C267.151 -16.4598 698.712 65.1204 640.588 22.8219C582.465 -19.4767 1186.77 77.188 1115.43 22.8219C1044.09 -31.5442 1669.63 74.1711 1614.9 22.8219C1560.18 -28.5273 1890 22.8219 1890 22.8219" stroke="#A0A9C9" stroke-opacity="0.15"/>
<path d="M-4.72363 83.2408C-4.72363 83.2408 388.197 122.522 323.851 83.2408C259.506 43.9592 691.067 125.539 632.944 83.2408C574.82 40.9423 1179.12 137.607 1107.78 83.2408C1036.44 28.8747 1661.98 134.59 1607.26 83.2408C1552.53 31.8916 1882.36 83.2408 1882.36 83.2408" stroke="#A0A9C9" stroke-opacity="0.15"/>
<path d="M-5.81641 103.381C-5.81641 103.381 387.104 142.663 322.759 103.381C258.413 64.0993 689.974 145.68 631.851 103.381C573.728 61.0824 1178.03 157.747 1106.69 103.381C1035.35 49.0149 1660.89 154.73 1606.16 103.381C1551.44 52.0317 1881.26 103.381 1881.26 103.381" stroke="#A0A9C9" stroke-opacity="0.15"/>
<path d="M-6.90771 123.521C-6.90771 123.521 386.013 162.803 321.667 123.521C257.322 84.2394 688.883 165.82 630.76 123.521C572.636 81.2225 1176.94 177.887 1105.6 123.521C1034.26 69.155 1659.8 174.87 1605.07 123.521C1550.35 72.1719 1880.17 123.521 1880.17 123.521" stroke="#A0A9C9" stroke-opacity="0.15"/>
<path d="M-8 143.66C-8 143.66 384.92 182.942 320.575 143.66C256.23 104.379 687.791 185.959 629.667 143.66C571.544 101.362 1175.85 198.026 1104.51 143.66C1033.17 89.2942 1658.71 195.009 1603.98 143.66C1549.25 92.311 1879.08 143.66 1879.08 143.66" stroke="#A0A9C9" stroke-opacity="0.15"/>
</svg>
