<svg overflow="hidden" viewBox="0 0 96 96" xmlns="http://www.w3.org/2000/svg"><circle cx="59" cy="23" r="5" fill="#ffffff" class="fill-000000"></circle><circle cx="81" cy="47" r="4" fill="#ffffff" class="fill-000000"></circle><circle cx="37" cy="23" r="5" fill="#ffffff" class="fill-000000"></circle><circle cx="15" cy="47" r="4" fill="#ffffff" class="fill-000000"></circle><path d="m91.8 64.2-3.5-8.3c-1.2-1.7-3.1-3-5.2-3.6-.6-.2-1.4-.3-2.1-.3-1.4 0-2.7.3-3.9.9L71 48.6l-3.6-15c-.1-.4-.4-.9-.7-1.1-1.2-.9-2.6-1.6-4.1-2-1.2-.3-2.4-.5-3.6-.5-1.2 0-2.4.2-3.5.5-1.5.4-2.9 1.1-4.1 2-.4.3-.6.7-.7 1.1L48 44.4l-2.6-10.8c-.1-.4-.4-.9-.7-1.1-1.2-.9-2.6-1.6-4.1-2-1.2-.3-2.4-.5-3.6-.5-1.2 0-2.4.2-3.5.5-1.5.4-2.9 1.1-4.1 2-.4.3-.6.7-.7 1.1l-3.6 15-6.1 4.3c-1.3-.6-2.6-.9-4-.9-.7 0-1.5.1-2.1.3-2.1.5-4 1.8-5.2 3.6l-3.5 8.3c-.4.9-.1 1.9.6 2.5.4.2.8.3 1.2.3.8 0 1.5-.5 1.8-1.2l2.2-5.2V78h4V66h2v12h4V57h.1l7.9-5.5c.4-.3.7-.7.8-1.2L32 37v41h4V55h2v23h4V37l4.1 16.5c.2.9 1 1.5 1.9 1.5.9 0 1.7-.6 1.9-1.5L54 37v8.4L50.5 60H54v18h4V60h2v18h4V60h3.5L64 45.4V37l3.3 13.3c.1.5.4.9.8 1.2l8 5.6v6.2L74 69h2v9h4v-9h2v9h4v-9h2l-1.9-5.3v-3.1l2.2 5.2c.3.8 1.1 1.2 1.8 1.2.4 0 .8-.1 1.2-.4.6-.5.9-1.6.5-2.4Z" fill="#ffffff" class="fill-000000"></path></svg>